<svg width="61" height="60" viewBox="0 0 61 60" fill="none" xmlns="http://www.w3.org/2000/svg">
<g clip-path="url(#clip0_1_6182)">
<path d="M50.516 9.98406L39.3968 21.1032C37.1197 18.8261 33.974 17.4174 30.5001 17.4174V1.69324C38.3164 1.69324 45.394 4.86077 50.516 9.98406Z" fill="url(#paint0_linear_1_6182)"/>
<path d="M21.6034 21.1032C19.3262 23.3804 17.9175 26.526 17.9175 29.9999H2.19336C2.19336 22.1837 5.36089 15.106 10.4842 9.98401L21.6034 21.1032Z" fill="url(#paint1_linear_1_6182)"/>
<path d="M30.5 1.69324V17.4174C27.0261 17.4174 23.8805 18.8261 21.6033 21.1032L10.4841 9.98406C15.6061 4.86077 22.6838 1.69324 30.5 1.69324Z" fill="url(#paint2_linear_1_6182)"/>
<path d="M58.8065 29.9999H43.0824C43.0824 26.526 41.6737 23.3804 39.3965 21.1032L50.5157 9.98401C55.639 15.106 58.8065 22.1837 58.8065 29.9999Z" fill="url(#paint3_linear_1_6182)"/>
<path d="M58.8065 29.9999C58.8065 37.8161 55.639 44.8938 50.5157 50.0158L39.3965 38.8966C41.6737 36.6194 43.0824 33.4738 43.0824 29.9999H58.8065Z" fill="url(#paint4_linear_1_6182)"/>
<path d="M21.6034 38.8967L10.4842 50.0159C5.36089 44.8939 2.19336 37.8162 2.19336 30H17.9175C17.9175 33.4739 19.3262 36.6195 21.6034 38.8967Z" fill="url(#paint5_linear_1_6182)"/>
<path d="M50.516 50.0158C45.394 55.1391 38.3164 58.3066 30.5001 58.3066V42.5825C33.974 42.5825 37.1197 41.1738 39.3968 38.8966L50.516 50.0158Z" fill="url(#paint6_linear_1_6182)"/>
<path d="M30.5 42.5825V58.3066C22.6838 58.3066 15.6061 55.1391 10.4841 50.0158L21.6033 38.8966C23.8805 41.1738 27.0261 42.5825 30.5 42.5825Z" fill="url(#paint7_linear_1_6182)"/>
<path d="M45.6836 14.8161L39.3965 21.1032C37.1193 18.8261 33.9736 17.4173 30.4998 17.4173V8.52747C36.43 8.52747 41.7967 10.9305 45.6836 14.8161Z" fill="url(#paint8_linear_1_6182)"/>
<path d="M21.6031 21.1032C19.3259 23.3804 17.9172 26.526 17.9172 29.9999H9.02734C9.02734 24.0697 11.4303 18.703 15.3159 14.816L21.6031 21.1032Z" fill="url(#paint9_linear_1_6182)"/>
<path d="M30.5003 8.52747V17.4173C27.0264 17.4173 23.8808 18.8261 21.6036 21.1032L15.3164 14.8161C19.2033 10.9305 24.5701 8.52747 30.5003 8.52747Z" fill="url(#paint10_linear_1_6182)"/>
<path d="M51.9722 29.9999H43.0824C43.0824 26.526 41.6737 23.3804 39.3965 21.1032L45.6837 14.816C49.5692 18.703 51.9722 24.0697 51.9722 29.9999Z" fill="url(#paint11_linear_1_6182)"/>
<path d="M51.9722 29.9999C51.9722 35.9301 49.5692 41.2968 45.6837 45.1838L39.3965 38.8966C41.6737 36.6194 43.0824 33.4738 43.0824 29.9999H51.9722Z" fill="url(#paint12_linear_1_6182)"/>
<path d="M21.6031 38.8966L15.3159 45.1838C11.4304 41.2968 9.02734 35.9301 9.02734 29.9999H17.9172C17.9172 33.4738 19.3259 36.6194 21.6031 38.8966Z" fill="url(#paint13_linear_1_6182)"/>
<path d="M45.6836 45.1838C41.7967 49.0693 36.43 51.4724 30.4998 51.4724V42.5825C33.9736 42.5825 37.1193 41.1738 39.3965 38.8966L45.6836 45.1838Z" fill="url(#paint14_linear_1_6182)"/>
<path d="M30.5003 42.5825V51.4724C24.5701 51.4724 19.2033 49.0693 15.3164 45.1838L21.6036 38.8966C23.8808 41.1738 27.0264 42.5825 30.5003 42.5825Z" fill="url(#paint15_linear_1_6182)"/>
<path d="M53.7849 13.9017L42.2348 25.4519C42.7821 26.8626 43.0829 28.396 43.0829 29.9997C43.0829 33.4736 41.6742 36.6193 39.3971 38.8964C37.1199 41.1736 33.9742 42.5823 30.5003 42.5823C28.8966 42.5823 27.3631 42.2815 25.9525 41.7342L14.4023 53.2843C18.9729 56.4503 24.5199 58.3064 30.5005 58.3064C38.3167 58.3064 45.3943 55.1389 50.5163 50.0156C55.6396 44.8937 58.8072 37.816 58.8072 29.9997C58.8071 24.0193 56.9509 18.4723 53.7849 13.9017Z" fill="url(#paint16_linear_1_6182)"/>
<path d="M6.60757 41.7107L0.562156 58.6219C0.269685 59.4401 1.0598 60.2303 1.87804 59.9379L18.7892 53.8924C22.1632 50.5184 9.98145 38.3368 6.60757 41.7107Z" fill="url(#paint17_linear_1_6182)"/>
<path d="M39.204 33.4793L18.7887 53.8925C18.4552 53.3145 17.9484 52.803 17.2991 52.4407C16.412 51.9494 15.0247 52.2183 14.0642 52.5096C13.8552 52.5719 13.664 52.4629 13.5862 52.2962C13.5373 52.1962 13.5285 52.0739 13.5818 51.9539C13.584 51.9539 13.584 51.9516 13.584 51.9516C13.6374 51.8294 13.6841 51.7048 13.7241 51.5803C13.7419 51.5203 13.7597 51.4603 13.7775 51.4002C13.7798 51.3958 13.7798 51.3935 13.7798 51.3892C13.831 51.1958 13.8665 51.0023 13.8865 50.8045C13.8932 50.74 13.8977 50.6733 13.902 50.6088C13.9075 50.5014 13.9086 50.394 13.9051 50.2866C13.8807 49.5349 13.6352 48.7885 13.1682 48.1543C13.0548 47.9987 12.9281 47.852 12.7881 47.7119C12.648 47.5717 12.5013 47.445 12.3457 47.3316C11.6208 46.7981 10.7493 46.5535 9.89119 46.598C9.82672 46.6025 9.76001 46.6069 9.69554 46.6135C9.49766 46.6335 9.30201 46.669 9.11083 46.7202C9.10636 46.7202 9.10413 46.7202 9.09966 46.7225C9.03966 46.7402 8.97954 46.758 8.91954 46.7759C8.85507 46.7959 8.79283 46.8181 8.7306 46.8426C8.6706 46.8648 8.61048 46.8893 8.55048 46.916C8.54825 46.916 8.54825 46.916 8.54601 46.9182C8.42589 46.9716 8.30366 46.9627 8.20366 46.9137C8.03695 46.836 7.92801 46.6447 7.99025 46.4357C8.28154 45.4753 8.55048 44.0902 8.05919 43.2032C7.69672 42.5517 7.18766 42.0448 6.60742 41.7114L27.0206 21.2961C27.941 20.3779 29.4306 20.3779 30.3488 21.2961L32.0852 23.0325L37.4677 28.4149L39.204 30.1513C40.1221 31.0693 40.1221 32.5588 39.204 33.4793Z" fill="url(#paint18_linear_1_6182)"/>
<path d="M37.468 28.4147L13.5866 52.2961C13.5376 52.1961 13.5288 52.0738 13.5821 51.9538C13.5843 51.9538 13.5843 51.9515 13.5843 51.9515C13.6377 51.8293 13.8689 51 13.8867 50.8043C13.8956 50.7376 13.9 50.6732 13.9022 50.6087C13.9467 49.7506 13.7021 48.879 13.1686 48.1542C13.0552 47.9986 12.9284 47.8519 12.7884 47.7118C12.6483 47.5716 12.5016 47.4449 12.346 47.3315C11.6212 46.798 10.7496 46.5534 9.89151 46.5979C9.82704 46.6001 9.76257 46.6046 9.69586 46.6134C9.50021 46.6312 9.30457 46.6668 9.11116 46.7201C9.10669 46.7201 9.10445 46.7201 9.09998 46.7223C9.03998 46.7379 8.61092 46.889 8.5508 46.9158C8.54857 46.9158 8.54857 46.9158 8.54633 46.918C8.42621 46.9714 8.30398 46.9625 8.20398 46.9135L32.0854 23.0321L37.468 28.4147Z" fill="url(#paint19_linear_1_6182)"/>
<path d="M3.97581 56.5242C3.33581 55.8842 2.62051 55.3707 1.86392 54.9806L0.562278 58.6219C0.269807 59.4401 1.05992 60.2304 1.87816 59.9378L5.51945 58.6361C5.12934 57.8794 4.61581 57.1641 3.97581 56.5242Z" fill="url(#paint20_linear_1_6182)"/>
<path d="M58.5958 1.90457L33.9446 26.5557L30.3386 22.9497C29.5526 22.1637 29.5526 20.8893 30.3386 20.1033L32.4953 17.9466C33.4263 17.0156 33.9492 15.753 33.9492 14.4366V11.7489C33.9492 9.63445 35.2886 7.75209 37.2864 7.05915L57.4446 0.0669179C58.5606 -0.320259 59.431 1.06927 58.5958 1.90457Z" fill="url(#paint21_linear_1_6182)"/>
<path d="M58.5959 1.9043L33.9447 26.5555L37.5507 30.1615C38.3367 30.9475 39.6112 30.9475 40.3972 30.1615L42.5539 28.0048C43.4848 27.0738 44.7474 26.5509 46.0639 26.5509H48.7514C50.8659 26.5509 52.7482 25.2115 53.4412 23.2137L60.4334 3.05536C60.8206 1.93948 59.4311 1.06901 58.5959 1.9043Z" fill="url(#paint22_linear_1_6182)"/>
<path d="M46.9816 14.676L59.3637 2.29386C59.6719 1.98562 59.7085 1.48386 59.4207 1.15633C59.1055 0.797388 58.5584 0.784211 58.2259 1.11656L45.853 13.4896C45.0429 14.2997 43.9203 14.7433 42.779 14.6424C41.7233 14.5493 40.6325 14.9489 39.8799 15.8419C38.8135 17.1072 38.8304 18.9944 39.9171 20.2425C41.2218 21.7408 43.4971 21.7995 44.8779 20.4187C45.6011 19.6955 45.9291 18.7272 45.8625 17.7814C45.7811 16.629 46.1647 15.4928 46.9816 14.676Z" fill="url(#paint23_linear_1_6182)"/>
<path d="M33.7401 15.8604C33.5062 16.6409 33.0819 17.3595 32.4953 17.9462L30.3386 20.1029C29.5526 20.8889 29.5526 22.1634 30.3386 22.9494L33.9446 26.5554L37.5506 30.1614C38.3366 30.9474 39.6111 30.9474 40.3971 30.1614L42.5538 28.0047C43.1405 27.418 43.8591 26.9938 44.6397 26.76L33.7401 15.8604Z" fill="url(#paint24_linear_1_6182)"/>
<path d="M36.1854 36.4982L24.002 24.3147L28.8574 19.4592C29.4197 18.8969 30.3314 18.8969 30.8936 19.4592L41.0408 29.6064C41.6031 30.1688 41.6031 31.0804 41.0408 31.6427L36.1854 36.4982Z" fill="url(#paint25_linear_1_6182)"/>
</g>
<defs>
<linearGradient id="paint0_linear_1_6182" x1="27.4361" y1="0.628767" x2="46.1502" y2="19.3429" gradientUnits="userSpaceOnUse">
<stop stop-color="#FFF5D9"/>
<stop offset="1" stop-color="#FFCE47"/>
</linearGradient>
<linearGradient id="paint1_linear_1_6182" x1="5.80101" y1="19.4541" x2="14.1776" y2="27.8307" gradientUnits="userSpaceOnUse">
<stop stop-color="#6FA953"/>
<stop offset="1" stop-color="#43765A"/>
</linearGradient>
<linearGradient id="paint2_linear_1_6182" x1="19.462" y1="4.80853" x2="30.4702" y2="15.8169" gradientUnits="userSpaceOnUse">
<stop stop-color="#E4E08E"/>
<stop offset="1" stop-color="#6FA953"/>
</linearGradient>
<linearGradient id="paint3_linear_1_6182" x1="39.5388" y1="12.7318" x2="57.4057" y2="30.5987" gradientUnits="userSpaceOnUse">
<stop stop-color="#FFCE47"/>
<stop offset="1" stop-color="#FF9356"/>
</linearGradient>
<linearGradient id="paint4_linear_1_6182" x1="43.508" y1="28.8547" x2="53.8658" y2="39.2126" gradientUnits="userSpaceOnUse">
<stop stop-color="#FF9356"/>
<stop offset="1" stop-color="#FF755C"/>
</linearGradient>
<linearGradient id="paint5_linear_1_6182" x1="4.30854" y1="30.1156" x2="16.4964" y2="42.3035" gradientUnits="userSpaceOnUse">
<stop stop-color="#7ACBFF"/>
<stop offset="1" stop-color="#45A2E0"/>
</linearGradient>
<linearGradient id="paint6_linear_1_6182" x1="30.4802" y1="44.1334" x2="40.7049" y2="54.358" gradientUnits="userSpaceOnUse">
<stop stop-color="#FF755C"/>
<stop offset="1" stop-color="#FF4181"/>
</linearGradient>
<linearGradient id="paint7_linear_1_6182" x1="13.0268" y1="38.8338" x2="37.751" y2="63.558" gradientUnits="userSpaceOnUse">
<stop stop-color="#FF4181"/>
<stop offset="1" stop-color="#843561"/>
</linearGradient>
<linearGradient id="paint8_linear_1_6182" x1="41.8025" y1="19.8275" x2="30.2847" y2="8.3097" gradientUnits="userSpaceOnUse">
<stop stop-color="#FFF5D9"/>
<stop offset="1" stop-color="#FFCE47"/>
</linearGradient>
<linearGradient id="paint9_linear_1_6182" x1="19.0456" y1="29.2819" x2="4.77028" y2="15.0066" gradientUnits="userSpaceOnUse">
<stop stop-color="#6FA953"/>
<stop offset="1" stop-color="#43765A"/>
</linearGradient>
<linearGradient id="paint10_linear_1_6182" x1="29.0301" y1="17.7935" x2="16.3258" y2="5.08923" gradientUnits="userSpaceOnUse">
<stop stop-color="#E4E08E"/>
<stop offset="1" stop-color="#6FA953"/>
</linearGradient>
<linearGradient id="paint11_linear_1_6182" x1="51.8368" y1="29.8618" x2="38.4253" y2="16.4503" gradientUnits="userSpaceOnUse">
<stop stop-color="#FFCE47"/>
<stop offset="1" stop-color="#FF9356"/>
</linearGradient>
<linearGradient id="paint12_linear_1_6182" x1="50.9122" y1="39.6761" x2="41.9522" y2="30.7161" gradientUnits="userSpaceOnUse">
<stop stop-color="#FF9356"/>
<stop offset="1" stop-color="#FF755C"/>
</linearGradient>
<linearGradient id="paint13_linear_1_6182" x1="22.5659" y1="43.5412" x2="6.02311" y2="26.9983" gradientUnits="userSpaceOnUse">
<stop stop-color="#7ACBFF"/>
<stop offset="1" stop-color="#45A2E0"/>
</linearGradient>
<linearGradient id="paint14_linear_1_6182" x1="40.6547" y1="50.8911" x2="28.5971" y2="38.8334" gradientUnits="userSpaceOnUse">
<stop stop-color="#FF755C"/>
<stop offset="1" stop-color="#FF4181"/>
</linearGradient>
<linearGradient id="paint15_linear_1_6182" x1="30.7724" y1="51.7472" x2="16.0571" y2="37.0319" gradientUnits="userSpaceOnUse">
<stop stop-color="#FF4181"/>
<stop offset="1" stop-color="#843561"/>
</linearGradient>
<linearGradient id="paint16_linear_1_6182" x1="42.6536" y1="42.1531" x2="34.1018" y2="33.6013" gradientUnits="userSpaceOnUse">
<stop stop-color="#843561" stop-opacity="0"/>
<stop offset="1" stop-color="#3A2F4D"/>
</linearGradient>
<linearGradient id="paint17_linear_1_6182" x1="1.94046" y1="46.3744" x2="14.1204" y2="58.5543" gradientUnits="userSpaceOnUse">
<stop stop-color="#FFE0EA"/>
<stop offset="1" stop-color="#FFC0D5"/>
</linearGradient>
<linearGradient id="paint18_linear_1_6182" x1="6.60742" y1="37.2499" x2="39.8926" y2="37.2499" gradientUnits="userSpaceOnUse">
<stop stop-color="#FFCE47"/>
<stop offset="1" stop-color="#FF9356"/>
</linearGradient>
<linearGradient id="paint19_linear_1_6182" x1="27.8905" y1="42.7187" x2="15.5929" y2="30.4212" gradientUnits="userSpaceOnUse">
<stop stop-color="#FFCE47"/>
<stop offset="1" stop-color="#FF9356"/>
</linearGradient>
<linearGradient id="paint20_linear_1_6182" x1="2.03703" y1="57.7224" x2="5.14484" y2="60.8302" gradientUnits="userSpaceOnUse">
<stop stop-color="#2F73A0"/>
<stop offset="1" stop-color="#174461"/>
</linearGradient>
<linearGradient id="paint21_linear_1_6182" x1="43.7878" y1="10.5307" x2="45.3917" y2="13.1657" gradientUnits="userSpaceOnUse">
<stop stop-color="#EDF5FF"/>
<stop offset="1" stop-color="#C7E9FF"/>
</linearGradient>
<linearGradient id="paint22_linear_1_6182" x1="47.8612" y1="15.6006" x2="50.0378" y2="19.4956" gradientUnits="userSpaceOnUse">
<stop stop-color="#EDF5FF"/>
<stop offset="1" stop-color="#C7E9FF"/>
</linearGradient>
<linearGradient id="paint23_linear_1_6182" x1="51.9737" y1="12.9953" x2="48.236" y2="9.25748" gradientUnits="userSpaceOnUse">
<stop stop-color="#2F73A0"/>
<stop offset="1" stop-color="#174461"/>
</linearGradient>
<linearGradient id="paint24_linear_1_6182" x1="37.8118" y1="22.6862" x2="35.7698" y2="24.7282" gradientUnits="userSpaceOnUse">
<stop stop-color="#7ACBFF" stop-opacity="0"/>
<stop offset="1" stop-color="#2F73A0"/>
</linearGradient>
<linearGradient id="paint25_linear_1_6182" x1="33.9848" y1="25.6669" x2="30.8059" y2="30.7725" gradientUnits="userSpaceOnUse">
<stop stop-color="#2F73A0"/>
<stop offset="1" stop-color="#174461"/>
</linearGradient>
<clipPath id="clip0_1_6182">
<rect width="60" height="60" fill="white" transform="translate(0.5)"/>
</clipPath>
</defs>
</svg>
