<svg width="60" height="61" viewBox="0 0 60 61" fill="none" xmlns="http://www.w3.org/2000/svg">
<g clip-path="url(#clip0_1_6304)">
<path d="M29.9469 48.1457C43.1038 48.1457 53.7697 37.4798 53.7697 24.3228C53.7697 11.1658 43.1038 0.5 29.9469 0.5C16.7899 0.5 6.12402 11.1658 6.12402 24.3228C6.12402 37.4798 16.7899 48.1457 29.9469 48.1457Z" fill="#FFD15C"/>
<path d="M10.6476 38.2598L2.45079 52.4684L12.0177 51.9606L16.3642 60.4999L23.9469 47.3543C18.5138 45.9487 13.8484 42.6771 10.6476 38.2598Z" fill="#40596B"/>
<path d="M49.2933 38.189C46.1161 42.6181 41.4508 45.9016 36.0295 47.3307L43.6358 60.5L47.9823 51.9606L57.5492 52.4685L49.2933 38.189Z" fill="#40596B"/>
<path d="M29.9469 41.5906C39.4836 41.5906 47.2146 33.8596 47.2146 24.3229C47.2146 14.7862 39.4836 7.05518 29.9469 7.05518C20.4102 7.05518 12.6791 14.7862 12.6791 24.3229C12.6791 33.8596 20.4102 41.5906 29.9469 41.5906Z" fill="#F8B64C"/>
<path d="M41.7815 22.4567C42.313 21.937 42.0177 21.0276 41.2854 20.9213L34.4705 19.9291C34.1752 19.8819 33.9272 19.7047 33.7972 19.4331L30.75 13.2559C30.4193 12.5827 29.4626 12.5827 29.1319 13.2559L26.0965 19.4331C25.9665 19.6929 25.7067 19.8819 25.4232 19.9291L18.6083 20.9213C17.876 21.0276 17.5807 21.937 18.1122 22.4567L23.0374 27.2638C23.25 27.4764 23.3445 27.7716 23.2972 28.0551L22.1398 34.8346C22.0098 35.5669 22.7894 36.1339 23.4508 35.7795L29.5453 32.5787C29.8051 32.437 30.124 32.437 30.3839 32.5787L36.4783 35.7795C37.1398 36.122 37.9075 35.5669 37.7894 34.8346L36.6201 28.0551C36.5728 27.7598 36.6673 27.4646 36.8799 27.2638L41.7815 22.4567Z" fill="white"/>
</g>
<defs>
<clipPath id="clip0_1_6304">
<rect width="60" height="60" fill="white" transform="translate(0 0.5)"/>
</clipPath>
</defs>
</svg>
