<svg width="20" height="19" viewBox="0 0 20 19" fill="none" xmlns="http://www.w3.org/2000/svg">
<path d="M19.0815 8.87232V9.52266C19.0815 9.88188 18.7904 10.1731 18.4312 10.1731H10.9515V17.6528C10.9515 18.0119 10.6603 18.3032 10.301 18.3032H9.6507C9.29148 18.3032 9.00026 18.0119 9.00026 17.6528V10.1731H1.52059C1.16138 10.1731 0.870178 9.88188 0.870178 9.52266V8.87232C0.870178 8.5131 1.16138 8.22188 1.52059 8.22188H9.00026V0.742197C9.00026 0.382987 9.29148 0.0917969 9.6507 0.0917969H10.301C10.6603 0.0917969 10.9515 0.382987 10.9515 0.742197V8.22188H18.4312C18.7904 8.22188 19.0815 8.5131 19.0815 8.87232Z" fill="#505056"/>
</svg>
