<svg width="69" height="69" viewBox="0 0 69 69" fill="none" xmlns="http://www.w3.org/2000/svg">
<path d="M56.7149 24.8154L40.543 40.1414L34.5 63.2203C37.9919 65.5036 42.1543 66.8437 46.6289 66.8437C58.89 66.8437 69 56.8685 69 44.6074C69 35.9789 63.9152 28.5002 56.7149 24.8154Z" fill="#25D9F8"/>
<path d="M32.4999 40.1415L12.2851 24.8156C5.08484 28.5002 0 35.9789 0 44.6074C0 56.8685 10.11 66.8437 22.3711 66.8437C26.8457 66.8437 31.0081 65.5036 34.5 63.2202L32.4999 40.1415Z" fill="#FF641A"/>
<path d="M56.7363 24.3926C56.7363 24.5542 56.7363 24.6756 56.6959 24.7967L34.5 34.0956L12.3041 24.7967C12.2637 24.6756 12.2637 24.5542 12.2637 24.3926C12.2637 12.1422 22.2497 2.15625 34.5 2.15625C46.7503 2.15625 56.7363 12.1422 56.7363 24.3926Z" fill="#FFDA2D"/>
<path d="M56.7363 24.3926C56.7363 24.5542 56.7363 24.6756 56.6959 24.7967L34.5 34.0956V2.15625C46.7503 2.15625 56.7363 12.1422 56.7363 24.3926Z" fill="#FDBF00"/>
<path d="M46.6289 22.3711C42.1543 22.3711 37.9919 23.7112 34.5 25.9945L44.586 44.1844C51.6671 40.5607 56.5548 33.2639 56.7149 24.8155C53.6833 23.2642 50.2615 22.3711 46.6289 22.3711Z" fill="#9CDD05"/>
<path d="M22.3711 22.3711C18.7385 22.3711 15.3166 23.2642 12.2851 24.8155C12.4452 33.2639 17.3329 40.5607 24.414 44.1844L34.5 25.9945C31.0081 23.7112 26.8457 22.3711 22.3711 22.3711Z" fill="#FF9100"/>
<path d="M44.6074 44.6074C44.6074 52.4104 40.5645 59.243 34.5 63.205C28.4355 59.243 24.3926 52.4104 24.3926 44.6074C24.3926 44.4456 24.3926 44.3244 24.433 44.203H44.567C44.6074 44.3244 44.6074 44.4456 44.6074 44.6074Z" fill="#979FEF"/>
<path d="M44.6074 44.6074C44.6074 52.4104 40.5645 59.243 34.5 63.205V44.203H44.567C44.6074 44.3244 44.6074 44.4456 44.6074 44.6074Z" fill="#737EE6"/>
<path d="M44.5666 44.2029C41.5344 45.7392 38.1384 46.6288 34.4996 46.6288C30.8608 46.6288 27.4648 45.7392 24.4326 44.2029C24.5538 36.5618 28.516 29.8909 34.4996 26.0095C40.4831 29.8909 44.4454 36.5618 44.5666 44.2029Z" fill="#47568C"/>
<path d="M44.567 44.203C41.5348 45.7393 38.1388 46.6289 34.5 46.6289V26.0096C40.4835 29.891 44.4458 36.5619 44.567 44.203Z" fill="#2C3B73"/>
</svg>
