<svg width="61" height="60" viewBox="0 0 61 60" fill="none" xmlns="http://www.w3.org/2000/svg">
<path d="M58.9861 27.5966V32.3948C58.9861 32.9056 58.6382 33.3507 58.1425 33.4742L54.6146 34.353C54.2041 34.4553 53.8958 34.7846 53.8041 35.1976C53.1961 37.937 52.1203 40.5001 50.6605 42.7976C50.4339 43.1541 50.4198 43.6032 50.6368 43.9655L52.5079 47.0882C52.77 47.5255 52.7012 48.085 52.3411 48.4458L48.9512 51.8421C48.59 52.204 48.0288 52.273 47.5906 52.0097L44.4705 50.1339C44.1079 49.9159 43.658 49.9299 43.301 50.1567C41.0046 51.6163 38.4482 52.6919 35.71 53.2998C35.2975 53.3915 34.9684 53.6991 34.8657 54.109L33.9793 57.6484C33.8553 58.1434 33.4105 58.4907 32.9002 58.4907H28.1C27.5898 58.4907 27.1449 58.1434 27.0209 57.6484L26.1345 54.109C26.0319 53.6991 25.7027 53.3915 25.2902 53.2998C22.5526 52.692 19.9973 51.6168 17.7078 50.1577C17.3509 49.9302 16.9009 49.9157 16.5379 50.1335L13.4093 52.0108C12.9712 52.2736 12.4105 52.2042 12.0495 51.8427L8.65906 48.4458C8.29895 48.085 8.23016 47.5255 8.49219 47.0882L10.3448 43.9964C10.5714 43.6182 10.5437 43.1491 10.2948 42.7851C8.78996 40.5843 7.78965 37.9404 7.19539 35.2033C7.10492 34.7864 6.79285 34.4544 6.37895 34.3513L2.85746 33.4741C2.36176 33.3505 2.01395 32.9055 2.01395 32.3946V27.5965C2.01395 27.0857 2.36176 26.6406 2.85746 26.5171L6.38164 25.6391C6.79414 25.5364 7.10363 25.205 7.19504 24.7899C7.7975 22.0528 8.87844 19.4919 10.3378 17.1961C10.5652 16.8384 10.5793 16.3869 10.3611 16.0234L8.49313 12.9121C8.23051 12.4748 8.29906 11.9147 8.65953 11.5537L12.0488 8.15792C12.41 7.79604 12.9712 7.72702 13.4094 7.99034L16.5274 9.86487C16.8911 10.0835 17.3423 10.0687 17.6997 9.83991C19.9903 8.37448 22.5525 7.29894 25.2975 6.6912C25.7108 6.59968 26.0404 6.29136 26.1427 5.88062L27.0215 2.35304C27.145 1.85733 27.5901 1.50952 28.1009 1.50952H32.8989C33.4098 1.50952 33.8548 1.85733 33.9784 2.35304L34.8563 5.87733C34.9591 6.28983 35.2905 6.59933 35.7056 6.69073C38.4429 7.29331 41.004 8.37437 43.2999 9.83382C43.6575 10.061 44.1084 10.0753 44.4718 9.85761L47.591 7.98858C48.029 7.72608 48.5894 7.79558 48.9501 8.15698L52.3404 11.5538C52.7007 11.9148 52.7694 12.4749 52.5068 12.9122L50.6388 16.0235C50.4206 16.3871 50.4346 16.8383 50.6621 17.1962C52.1214 19.4921 53.2024 22.053 53.8048 24.79C53.8963 25.2051 54.2059 25.5366 54.6182 25.6392L58.1424 26.5172C58.6381 26.6406 58.9861 27.0858 58.9861 27.5966Z" fill="#CCE1FF"/>
<path d="M48.2225 29.9951C48.2225 39.7837 40.2853 47.7209 30.5033 47.7209C20.7147 47.7209 12.7775 39.7837 12.7775 29.9951C12.7775 20.2065 20.7147 12.2759 30.5033 12.2759C40.2853 12.2759 48.2225 20.2065 48.2225 29.9951Z" fill="#D7E9FF"/>
<path d="M22.505 35.5659C24.2927 35.5659 25.7419 34.1167 25.7419 32.329C25.7419 30.5413 24.2927 29.092 22.505 29.092C20.7173 29.092 19.268 30.5413 19.268 32.329C19.268 34.1167 20.7173 35.5659 22.505 35.5659Z" fill="white"/>
<path d="M30.5 30.9081C32.2877 30.9081 33.7369 29.4589 33.7369 27.6712C33.7369 25.8834 32.2877 24.4342 30.5 24.4342C28.7123 24.4342 27.263 25.8834 27.263 27.6712C27.263 29.4589 28.7123 30.9081 30.5 30.9081Z" fill="white"/>
<path d="M38.4949 34.7823C40.2826 34.7823 41.7318 33.333 41.7318 31.5453C41.7318 29.7576 40.2826 28.3083 38.4949 28.3083C36.7072 28.3083 35.2579 29.7576 35.2579 31.5453C35.2579 33.333 36.7072 34.7823 38.4949 34.7823Z" fill="white"/>
<path d="M2.71062 34.0622L6.23222 34.9395C6.41867 34.986 6.56082 35.1364 6.60277 35.3323C7.26336 38.3739 8.33726 40.9966 9.79414 43.1277C9.91425 43.3029 9.9255 43.5163 9.82496 43.6847L7.97152 46.7769C7.56664 47.4536 7.67257 48.3161 8.22957 48.8744L11.6204 52.2708C12.1781 52.8305 13.0412 52.9385 13.7207 52.5307L16.8499 50.6536C17.0115 50.5572 17.2146 50.563 17.382 50.6693C19.7724 52.1928 22.3884 53.277 25.1582 53.8918C25.3518 53.935 25.501 54.0749 25.5466 54.2564L26.4328 57.7964C26.6252 58.5621 27.3106 59.097 28.0998 59.097H32.9001C33.6893 59.097 34.3747 58.5621 34.5671 57.7959L35.4533 54.2561C35.4989 54.0747 35.6475 53.935 35.841 53.8918C38.6086 53.2776 41.228 52.1931 43.626 50.6687C43.793 50.5625 43.9972 50.5572 44.1576 50.6536L47.278 52.5293C47.9564 52.9366 48.8206 52.8312 49.3801 52.2706L52.7703 48.8741C53.3273 48.3162 53.4334 47.4537 53.0278 46.7767L51.1565 43.654C51.0601 43.493 51.0659 43.2897 51.1719 43.1227C52.6951 40.7255 53.7801 38.1033 54.3958 35.329C54.4385 35.1352 54.5787 34.9868 54.7611 34.9412L58.2893 34.0622C59.0565 33.871 59.5921 33.1855 59.5921 32.3949V27.5966C59.5921 26.8057 59.0564 26.1203 58.2893 25.9291L54.7646 25.0512C54.5811 25.0054 54.4402 24.8555 54.397 24.6599C53.7896 21.9007 52.7052 19.2801 51.1736 16.8707C51.0665 16.7031 51.0611 16.4978 51.1583 16.3355L53.0266 13.2241C53.4327 12.5468 53.3273 11.684 52.7697 11.1255L49.3789 7.72843C48.82 7.16957 47.9575 7.06246 47.2797 7.46851L44.1607 9.33765C43.9979 9.43445 43.7936 9.42847 43.6249 9.3223C41.2161 7.79089 38.5954 6.70632 35.8357 6.09871C35.6403 6.05546 35.4905 5.91496 35.445 5.73074L34.5665 2.20667C34.3759 1.43921 33.6898 0.903198 32.8989 0.903198H28.1009C27.31 0.903198 26.6246 1.43898 26.4328 2.20644L25.5543 5.73402C25.5093 5.91636 25.3602 6.0564 25.1666 6.09929C22.3814 6.71582 19.7594 7.80273 17.3732 9.32945C17.2051 9.43691 17.0009 9.44195 16.8399 9.34539L13.722 7.47085C13.0436 7.06363 12.18 7.16898 11.6199 7.7296L8.23015 11.1255C7.67246 11.6846 7.56652 12.5477 7.97328 13.2241L9.8416 16.3352C9.93863 16.4977 9.93335 16.7031 9.82625 16.8709C8.29484 19.28 7.21027 21.9006 6.60289 24.6602C6.55964 24.8555 6.41879 25.0053 6.23468 25.0512L2.71062 25.9291C1.94339 26.1203 1.40773 26.8057 1.40773 27.5966V32.3949C1.40773 33.1854 1.94339 33.871 2.71062 34.0622ZM2.62003 27.5966C2.62003 27.3637 2.77812 27.1619 3.00418 27.1053L6.52765 26.2274C7.16222 26.0697 7.6441 25.5688 7.78683 24.9203C8.36398 22.2999 9.39406 19.8107 10.8492 17.5218C11.2038 16.9644 11.2162 16.2709 10.8812 15.7115L9.01285 12.5998C8.89273 12.4006 8.92402 12.1466 9.08867 11.9821L12.4783 8.58624C12.6428 8.42171 12.8974 8.38972 13.0969 8.50984L16.2148 10.3844C16.7749 10.7206 17.468 10.7082 18.0269 10.3506C20.293 8.90089 22.7828 7.86882 25.4284 7.28335C26.0742 7.14039 26.5739 6.6591 26.7312 6.02722L27.6097 2.5C27.6659 2.27382 27.8677 2.11585 28.1011 2.11585H32.8991C33.1317 2.11585 33.3336 2.27359 33.3898 2.49976L34.2683 6.02382C34.4258 6.65757 34.9265 7.14003 35.5754 7.283C38.1966 7.86015 40.6859 8.89046 42.9751 10.3456C43.5328 10.6998 44.2259 10.712 44.7835 10.3782L47.9026 8.50902C48.1014 8.38949 48.3567 8.42054 48.5212 8.58566L51.9114 11.9825C52.076 12.1468 52.1068 12.4009 51.9873 12.6005L50.1189 15.7122C49.7839 16.2713 49.7963 16.9648 50.1509 17.5218C51.606 19.8109 52.636 22.3002 53.2133 24.9203C53.3559 25.5691 53.8378 26.0699 54.4719 26.2277L57.9959 27.1055C58.2221 27.162 58.3801 27.3639 58.3801 27.5969V32.3951C58.3801 32.6277 58.222 32.8299 57.9959 32.8861L54.4684 33.7652C53.8373 33.9221 53.356 34.4208 53.2122 35.0663C52.6273 37.7027 51.5967 40.1945 50.1493 42.4725C49.7953 43.0289 49.7834 43.7207 50.1173 44.2775L51.988 47.3998C52.1075 47.5993 52.0762 47.8535 51.9121 48.0178L48.5219 51.4143C48.358 51.5788 48.1034 51.6106 47.9033 51.4903L44.7828 49.6149C44.2251 49.2789 43.5325 49.2911 42.9761 49.6453C40.6965 51.0939 38.2078 52.1242 35.5776 52.7083C34.933 52.8518 34.4346 53.3325 34.2776 53.9621L33.3915 57.5009C33.3346 57.7267 33.1327 57.8844 32.9001 57.8844H28.0998C27.8671 57.8844 27.6652 57.7267 27.6084 57.5015L26.7222 53.9615C26.5641 53.3316 26.0657 52.8515 25.4211 52.7083C22.7898 52.124 20.3041 51.0939 18.0338 49.6469C17.4721 49.2893 16.781 49.2811 16.226 49.6141L13.0968 51.4912C12.8968 51.6105 12.6427 51.5794 12.4788 51.4145L9.08796 48.0181C8.92402 47.8535 8.89261 47.5993 9.01156 47.4L10.8644 44.3082C11.2066 43.7372 11.1793 43.0049 10.7946 42.4431C9.42652 40.4419 8.41484 37.963 7.78789 35.0748C7.64644 34.4248 7.16281 33.9223 6.52578 33.7633L3.00418 32.886C2.778 32.8298 2.62003 32.6276 2.62003 32.395V27.5966Z" fill="#116FFF"/>
<path d="M30.5033 48.327C40.6077 48.327 48.8285 40.1032 48.8285 29.995C48.8285 19.8906 40.6078 11.6698 30.5033 11.6698C20.3947 11.6698 12.1711 19.8905 12.1711 29.995C12.1709 40.1032 20.3947 48.327 30.5033 48.327ZM30.5033 12.8822C39.9393 12.8822 47.6161 20.5589 47.6161 29.995C47.6161 39.4349 39.9393 47.1146 30.5033 47.1146C21.063 47.1146 13.3834 39.4349 13.3834 29.995C13.3834 20.5589 21.063 12.8822 30.5033 12.8822Z" fill="#116FFF"/>
<path d="M21.8989 36.1196V41.0811C21.8989 41.4159 22.1701 41.6873 22.5051 41.6873C22.8402 41.6873 23.1113 41.4159 23.1113 41.0811V36.1196C24.9429 35.8275 26.3483 34.2413 26.3483 32.3291C26.3483 30.4166 24.9429 28.8303 23.1113 28.5382V18.9191C23.1113 18.5843 22.8402 18.3129 22.5051 18.3129C22.1701 18.3129 21.8989 18.5843 21.8989 18.9191V28.5382C20.0674 28.8303 18.662 30.4165 18.662 32.3291C18.662 34.2413 20.0674 35.8275 21.8989 36.1196ZM22.5051 29.6981C23.9554 29.6981 25.1359 30.8785 25.1359 32.3291C25.1359 33.7797 23.9554 34.9598 22.5051 34.9598C21.0548 34.9598 19.8744 33.7797 19.8744 32.3291C19.8744 30.8784 21.0547 29.6981 22.5051 29.6981Z" fill="#116FFF"/>
<path d="M29.8935 31.4617V41.0811C29.8935 41.4159 30.1647 41.6873 30.4997 41.6873C30.8348 41.6873 31.106 41.4159 31.106 41.0811V31.4617C32.9376 31.1695 34.3435 29.5834 34.3435 27.6711C34.3435 25.7588 32.9376 24.1727 31.106 23.8806V18.9191C31.106 18.5843 30.8348 18.3129 30.4997 18.3129C30.1647 18.3129 29.8935 18.5843 29.8935 18.9191V23.8806C28.062 24.1727 26.6566 25.7588 26.6566 27.6711C26.6566 29.5834 28.062 31.1696 29.8935 31.4617ZM30.4996 25.0404C31.9505 25.0404 33.131 26.2204 33.131 27.6711C33.131 29.1218 31.9505 30.3018 30.4996 30.3018C29.0493 30.3018 27.8689 29.1218 27.8689 27.6711C27.869 26.2206 29.0493 25.0404 30.4996 25.0404Z" fill="#116FFF"/>
<path d="M37.8888 35.3359V41.0811C37.8888 41.4159 38.16 41.6873 38.495 41.6873C38.83 41.6873 39.1012 41.4159 39.1012 41.0811V35.3359C40.9327 35.0437 42.3382 33.4576 42.3382 31.5453C42.3382 29.6328 40.9327 28.0466 39.1012 27.7544V18.9191C39.1012 18.5843 38.83 18.3129 38.495 18.3129C38.16 18.3129 37.8888 18.5843 37.8888 18.9191V27.7544C36.0573 28.0466 34.6518 29.6327 34.6518 31.5453C34.6518 33.4576 36.0573 35.0437 37.8888 35.3359ZM38.4949 28.9143C39.9452 28.9143 41.1256 30.0948 41.1256 31.5453C41.1256 32.996 39.9452 34.1761 38.4949 34.1761C37.0446 34.1761 35.8641 32.996 35.8641 31.5453C35.8641 30.0947 37.0446 28.9143 38.4949 28.9143Z" fill="#116FFF"/>
</svg>
