<svg width="60" height="61" viewBox="0 0 60 61" fill="none" xmlns="http://www.w3.org/2000/svg">
<path d="M50.2818 28.428C51.2263 25.6317 51.0693 22.5804 49.8428 19.8958C48.6162 17.2111 46.4124 15.095 43.6802 13.9785C40.948 12.8619 37.8929 12.8289 35.1371 13.8862C32.3814 14.9434 30.1324 17.0114 28.8482 19.669C27.6753 19.0064 26.3672 18.6189 25.0227 18.5357C23.6781 18.4526 22.3323 18.676 21.0867 19.1891C19.8411 19.7022 18.7284 20.4916 17.8326 21.4976C16.9367 22.5036 16.2811 23.7001 15.9152 24.9965C14.3128 24.5557 12.6347 24.4627 10.9934 24.7239C9.35211 24.985 7.78567 25.5942 6.39921 26.5106C5.01275 27.4269 3.83835 28.6293 2.95483 30.0369C2.07131 31.4445 1.49912 33.0249 1.27664 34.6718C1.05417 36.3188 1.18658 37.9943 1.66497 39.5859C2.14336 41.1775 2.95667 42.6483 4.05031 43.8997C5.14395 45.1511 6.49262 46.154 8.0058 46.8413C9.51898 47.5285 11.1617 47.8841 12.8236 47.8842H49.0607C51.5453 47.8847 53.9366 46.9382 55.7479 45.2374C57.5591 43.5366 58.654 41.2094 58.8096 38.7297C58.9652 36.2499 58.1699 33.8041 56.5855 31.8902C55.0012 29.9763 52.7469 28.7382 50.2818 28.428Z" fill="#80CDF6"/>
</svg>
